<svg viewBox="0 0 512 512" xmlns="http://www.w3.org/2000/svg">
  <defs>
    <linearGradient id="bg" x1="0%" y1="0%" x2="100%" y2="100%">
      <stop offset="0%" style="stop-color:#0D3A8A"/>
      <stop offset="100%" style="stop-color:#1560E8"/>
    </linearGradient>
  </defs>
  <!-- Blue rounded background -->
  <rect width="512" height="512" rx="110" ry="110" fill="url(#bg)"/>
  <!-- Icon scaled to 70% and centered -->
  <g fill="white" transform="translate(256,256) scale(0.7) translate(-256,-256)">
    <path d="m476.69 340.78h11.31v42.12h-11.31z"/>
    <path d="m24 340.78h11.31v42.12h-11.31z"/>
    <path d="m64.96 310.85c-7.53 0-13.66 6.12-13.66 13.63v8.31 58.11 8.31c0 7.52 6.13 13.63 13.66 13.63h23.98v-101.99z"/>
    <path d="m387.99 91.69c-31.06-29.93-78.3-19.1-126.35 28.96-1.5 1.5-3.53 2.35-5.65 2.35s-4.16-.85-5.66-2.35c-30.12-30.12-59.92-45.62-85.61-45.62-15.3 0-29.13 5.49-40.72 16.65-26.89 25.91-33.91 79.71-3.07 112.93l135.06 145.48 135.08-145.48c30.84-33.22 23.81-87.02-3.08-112.92zm-42.63 105.74h-34.29l-34.81 54.99c-1.47 2.32-4.02 3.72-6.75 3.72-.13 0-.27 0-.4-.01-2.88-.14-5.46-1.83-6.75-4.4l-32.7-65.18-16.16 25.51c-1.47 2.31-4.01 3.71-6.75 3.71h-40.11c-4.42 0-8-3.58-8-7.99 0-4.42 3.58-7.99 8-7.99h35.71l21.37-33.73c1.54-2.44 4.27-3.85 7.15-3.71s5.46 1.83 6.75 4.4l32.69 65.18 29.61-46.77c1.46-2.31 4.01-3.71 6.75-3.71h38.69c4.42 0 8 3.57 8 7.99 0 4.41-3.58 7.99-8 7.99z"/>
    <path d="m460.7 323.77v76.14c0 7.13-5.81 12.93-12.95 12.93h-24.69v-101.99h24.69c7.14 0 12.95 5.8 12.95 12.92z"/>
    <path d="m142.57 293.22c0-3.55-2.89-6.43-6.43-6.43h-24.77c-3.55 0-6.43 2.89-6.43 6.43v9.64 117.98 9.64c0 3.55 2.89 6.43 6.43 6.43h24.77c3.55 0 6.43-2.89 6.43-6.43v-39.58-58.11z"/>
    <path d="m353.44 340.78v42.12h-194.88v-42.12h66.97l24.6 26.5c1.51 1.63 3.63 2.56 5.86 2.56 2.22 0 4.34-.93 5.85-2.56l24.61-26.5z"/>
    <path d="m407.07 293.22v137.25c0 3.55-2.9 6.43-6.46 6.43h-24.75c-3.55 0-6.43-2.88-6.43-6.43v-137.25c0-3.55 2.88-6.44 6.43-6.44h24.75c3.56 0 6.46 2.89 6.46 6.44z"/>
  </g>
</svg>
